<svg viewBox="0 0 420 280" xmlns="http://www.w3.org/2000/svg" role="img" aria-label="Servicio técnico y reparación">
  <defs><clipPath id="r1"><rect width="420" height="280" rx="20"/></clipPath></defs>
  <g clip-path="url(#r1)">
    <rect width="420" height="280" fill="#fff5f5"/>
    <circle cx="350" cy="60" r="90" fill="#fde2e3"/>
    <!-- wrench -->
    <g transform="rotate(40 210 150)">
      <rect x="196" y="120" width="28" height="120" rx="12" fill="#111"/>
      <path d="M210 95a34 34 0 1 0 0 68 34 34 0 0 0 0-68zm0 18a16 16 0 1 1 0 32 16 16 0 0 1 0-32z" fill="#111"/>
      <path d="M186 100l18-12 14 18-18 12z" fill="#e4141b"/>
    </g>
    <!-- screwdriver -->
    <g transform="rotate(-30 250 150)">
      <rect x="240" y="150" width="18" height="86" rx="8" fill="#e4141b"/>
      <rect x="244" y="120" width="10" height="36" fill="#111"/>
      <rect x="246" y="96" width="6" height="28" fill="#444"/>
    </g>
    <rect x="0" y="232" width="420" height="48" fill="#111"/>
    <text x="24" y="263" fill="#fff" font-family="Plus Jakarta Sans,Arial" font-weight="800" font-size="22">Servicio Técnico</text>
  </g>
</svg>
