<svg viewBox="0 0 1600 760" xmlns="http://www.w3.org/2000/svg" preserveAspectRatio="xMaxYMid slice" role="img" aria-hidden="true">
  <defs>
    <radialGradient id="glow" cx="76%" cy="34%" r="62%">
      <stop offset="0%" stop-color="#ffe1e2"/>
      <stop offset="55%" stop-color="#fff4f4"/>
      <stop offset="100%" stop-color="#ffffff"/>
    </radialGradient>
    <linearGradient id="fade" x1="0" y1="0" x2="1" y2="0">
      <stop offset="0%" stop-color="#ffffff"/>
      <stop offset="38%" stop-color="#ffffff" stop-opacity="0.95"/>
      <stop offset="64%" stop-color="#ffffff" stop-opacity="0"/>
    </linearGradient>
    <pattern id="dots" width="34" height="34" patternUnits="userSpaceOnUse">
      <circle cx="3" cy="3" r="2.2" fill="#e4141b" fill-opacity="0.09"/>
    </pattern>
    <filter id="soft" x="-30%" y="-30%" width="160%" height="160%">
      <feDropShadow dx="0" dy="10" stdDeviation="14" flood-color="#c01016" flood-opacity="0.16"/>
    </filter>
  </defs>

  <rect width="1600" height="760" fill="url(#glow)"/>
  <rect width="1600" height="760" fill="url(#dots)"/>
  <circle cx="1240" cy="380" r="300" fill="#fcd9db" opacity="0.45"/>
  <circle cx="1500" cy="120" r="150" fill="#fbcfd1" opacity="0.4"/>

  <!-- ===== Central: phone being repaired ===== -->
  <g transform="rotate(-12 1230 380)" filter="url(#soft)">
    <!-- phone body -->
    <rect x="1130" y="210" width="200" height="340" rx="34" fill="#111"/>
    <rect x="1146" y="230" width="168" height="300" rx="20" fill="#23262f"/>
    <!-- screen content lines -->
    <rect x="1170" y="262" width="92" height="14" rx="7" fill="#e4141b"/>
    <rect x="1170" y="292" width="120" height="9" rx="4.5" fill="#5a5f6c"/>
    <rect x="1170" y="312" width="104" height="9" rx="4.5" fill="#5a5f6c"/>
    <circle cx="1230" cy="430" r="40" fill="#2f3340"/>
    <path d="M1212 430h36 M1230 412v36" stroke="#e4141b" stroke-width="7" stroke-linecap="round"/>
  </g>

  <!-- screwdriver -->
  <g transform="rotate(34 1360 470)">
    <rect x="1351" y="470" width="20" height="120" rx="9" fill="#e4141b"/>
    <rect x="1356" y="436" width="10" height="40" fill="#111"/>
    <rect x="1358" y="408" width="6" height="30" fill="#555"/>
  </g>
  <!-- wrench -->
  <g transform="rotate(-26 1095 470)">
    <rect x="1083" y="468" width="24" height="118" rx="11" fill="#111"/>
    <path d="M1095 430a30 30 0 1 0 0 60 30 30 0 0 0 0-60zm0 16a14 14 0 1 1 0 28 14 14 0 0 1 0-28z" fill="#111"/>
  </g>
  <!-- screws -->
  <g fill="#9aa1ad">
    <circle cx="1085" cy="250" r="9"/><path d="M1080 250h10" stroke="#fff" stroke-width="2.4"/>
    <circle cx="1395" cy="300" r="9"/><path d="M1395 295v10" stroke="#fff" stroke-width="2.4"/>
    <circle cx="1330" cy="600" r="9"/><path d="M1325 600h10" stroke="#fff" stroke-width="2.4"/>
  </g>

  <!-- ===== Orbiting device badges ===== -->
  <!-- controller -->
  <g transform="translate(965 200)">
    <circle r="54" fill="#fff" filter="url(#soft)"/>
    <path d="M-30 -6c5-9 25-9 30 0 4 7 11 28 4 33-6 5-13-3-19-8-4-3-14-3-18 0-6 5-13 13-19 8-7-5 0-26 4-33z" fill="#111" transform="translate(15 4) scale(0.9)"/>
    <circle cx="6" cy="20" r="4" fill="#e4141b"/><circle cx="20" cy="28" r="4" fill="#23c483"/>
  </g>
  <!-- drone -->
  <g transform="translate(1505 330)">
    <circle r="54" fill="#fff" filter="url(#soft)"/>
    <g stroke="#111" stroke-width="6" stroke-linecap="round">
      <line x1="-26" y1="-20" x2="26" y2="20"/><line x1="26" y1="-20" x2="-26" y2="20"/>
    </g>
    <circle cx="-26" cy="-20" r="11" fill="none" stroke="#111" stroke-width="5"/>
    <circle cx="26" cy="-20" r="11" fill="none" stroke="#111" stroke-width="5"/>
    <circle cx="-26" cy="20" r="11" fill="none" stroke="#111" stroke-width="5"/>
    <circle cx="26" cy="20" r="11" fill="none" stroke="#111" stroke-width="5"/>
    <rect x="-15" y="-12" width="30" height="24" rx="6" fill="#e4141b"/>
  </g>
  <!-- laptop -->
  <g transform="translate(1010 540)">
    <circle r="54" fill="#fff" filter="url(#soft)"/>
    <rect x="-28" y="-24" width="56" height="38" rx="4" fill="#111"/>
    <rect x="-23" y="-19" width="46" height="28" rx="2" fill="#2f3340"/>
    <rect x="-20" y="-14" width="22" height="5" rx="2.5" fill="#e4141b"/>
    <path d="M-36 18h72l6 8h-84z" fill="#111"/>
  </g>
  <!-- headphones -->
  <g transform="translate(1430 560)">
    <circle r="54" fill="#fff" filter="url(#soft)"/>
    <path d="M-26 6a26 26 0 0 1 52 0" fill="none" stroke="#111" stroke-width="9" stroke-linecap="round"/>
    <rect x="-32" y="2" width="14" height="26" rx="6" fill="#e4141b"/>
    <rect x="18" y="2" width="14" height="26" rx="6" fill="#e4141b"/>
  </g>

  <!-- fade left for text -->
  <rect width="1600" height="760" fill="url(#fade)"/>
</svg>
